name Walk9.mot
datacolumns 19
datarows 17
range 2.13500000 2.21500000
endheader

                time	   L_ground_force_vx	   L_ground_force_vy	   L_ground_force_vz	   L_ground_force_px	   L_ground_force_py	   L_ground_force_pz	   R_ground_force_vx	   R_ground_force_vy	   R_ground_force_vz	   R_ground_force_px	   R_ground_force_py	   R_ground_force_pz	   L_ground_torque_x	   L_ground_torque_y	   L_ground_torque_z	   R_ground_torque_x	   R_ground_torque_y	   R_ground_torque_z	
          2.13500000	          0.18347388	         -0.82366701	          0.01938094	         -0.02067671	          0.00000000	         -0.00746157	          0.00000000	          0.00000000	          0.00000000	         -0.00000000	          0.00000000	          0.00000000	          0.00000000	          0.00235979	          0.00000000	          0.00000000	         -0.00000000	          0.00000000	
          2.14000000	          0.11259484	         -0.24296358	          0.00381538	         -0.00914458	          0.00000000	         -0.00328088	         -0.00000000	          0.00000000	          0.00000000	         -0.00000000	          0.00000000	          0.00000000	          0.00000000	          0.00024018	          0.00000000	          0.00000000	         -0.00000000	          0.00000000	
          2.14500000	          0.01179629	          0.02096233	         -0.00102871	         -0.00033133	          0.00000000	         -0.00011419	         -0.00000000	         -0.00000000	         -0.00000000	          0.00000000	          0.00000000	         -0.00000000	          0.00000000	         -0.00018843	          0.00000000	          0.00000000	         -0.00000000	          0.00000000	
          2.15000000	         -0.00889626	          0.03226742	         -0.00070369	          0.00089900	          0.00000000	          0.00032386	         -0.00000000	         -0.00000000	         -0.00000000	          0.00000000	          0.00000000	         -0.00000000	          0.00000000	         -0.00007912	          0.00000000	          0.00000000	          0.00000000	          0.00000000	
          2.15500000	         -0.00378514	          0.00681149	         -0.00008652	          0.00028910	          0.00000000	          0.00010359	          0.00000000	          0.00000000	          0.00000000	          0.00000000	          0.00000000	         -0.00000000	          0.00000000	         -0.00000183	          0.00000000	          0.00000000	          0.00000000	          0.00000000	
          2.16000000	         -0.00010050	         -0.00158338	          0.00005200	         -0.00001614	          0.00000000	         -0.00000597	          0.00000000	          0.00000000	          0.00000000	         -0.00000000	          0.00000000	          0.00000000	          0.00000000	          0.00000807	          0.00000000	          0.00000000	          0.00000000	          0.00000000	
          2.16500000	          0.00038244	         -0.00118500	          0.00002403	         -0.00003592	          0.00000000	         -0.00001292	          0.00000000	          0.00000000	          0.00000000	         -0.00000000	          0.00000000	          0.00000000	          0.00000000	          0.00000247	          0.00000000	          0.00000000	         -0.00000000	          0.00000000	
          2.17000000	          0.00011860	         -0.00016187	          0.00000112	         -0.00000836	          0.00000000	         -0.00000299	         -0.00000000	         -0.00000000	         -0.00000000	         -0.00000000	          0.00000000	          0.00000000	          0.00000000	         -0.00000018	          0.00000000	          0.00000000	         -0.00000000	          0.00000000	
          2.17500000	         -0.00000810	          0.00008301	         -0.00000229	          0.00000154	          0.00000000	          0.00000056	         -0.00000000	         -0.00000000	         -0.00000000	          0.00000000	          0.00000000	         -0.00000000	          0.00000000	         -0.00000032	          0.00000000	          0.00000000	         -0.00000000	          0.00000000	
          2.18000000	         -0.00001515	          0.00004094	         -0.00000077	          0.00000134	          0.00000000	          0.00000048	         -0.00000000	         -0.00000000	         -0.00000000	          0.00000000	          0.00000000	         -0.00000000	          0.00000000	         -0.00000007	          0.00000000	          0.00000000	          0.00000000	          0.00000000	
          2.18500000	         -0.00000339	          0.00000252	          0.00000003	          0.00000021	          0.00000000	          0.00000008	          0.00000000	          0.00000000	          0.00000000	         -0.00000000	          0.00000000	          0.00000000	          0.00000000	          0.00000001	          0.00000000	          0.00000000	          0.00000000	          0.00000000	
          2.19000000	          0.00000069	         -0.00000373	          0.00000009	         -0.00000009	          0.00000000	         -0.00000003	          0.00000000	          0.00000000	          0.00000000	         -0.00000000	          0.00000000	          0.00000000	          0.00000000	          0.00000001	          0.00000000	          0.00000000	         -0.00000000	          0.00000000	
          2.19500000	          0.00000056	         -0.00000132	          0.00000002	         -0.00000005	          0.00000000	         -0.00000002	         -0.00000000	          0.00000000	          0.00000000	         -0.00000000	          0.00000000	          0.00000000	          0.00000000	          0.00000000	          0.00000000	          0.00000000	         -0.00000000	          0.00000000	
          2.20000000	          0.00000008	          0.00000003	         -0.00000000	         -0.00000000	          0.00000000	         -0.00000000	         -0.00000000	         -0.00000000	         -0.00000000	          0.00000000	          0.00000000	         -0.00000000	          0.00000000	         -0.00000000	          0.00000000	          0.00000000	         -0.00000000	          0.00000000	
          2.20500000	         -0.00000004	          0.00000015	         -0.00000000	          0.00000000	          0.00000000	          0.00000000	         -0.00000000	         -0.00000000	         -0.00000000	          0.00000000	          0.00000000	         -0.00000000	          0.00000000	         -0.00000000	          0.00000000	          0.00000000	          0.00000000	          0.00000000	
          2.21000000	         -0.00000002	          0.00000004	         -0.00000000	          0.00000000	          0.00000000	          0.00000000	          0.00000000	         -0.00000000	          0.00000000	          0.00000000	          0.00000000	         -0.00000000	          0.00000000	         -0.00000000	          0.00000000	          0.00000000	          0.00000000	          0.00000000	
          2.21500000	         -0.00000000	         -0.00000001	          0.00000000	          0.00000000	          0.00000000	         -0.00000000	          0.00000000	          0.00000000	          0.00000000	         -0.00000000	          0.00000000	          0.00000000	          0.00000000	          0.00000000	          0.00000000	          0.00000000	          0.00000000	          0.00000000	
